<?xml version="1.0" standalone="no"?>
<!DOCTYPE svg PUBLIC "-//W3C//DTD SVG 20010904//EN"
 "http://www.w3.org/TR/2001/REC-SVG-20010904/DTD/svg10.dtd">
<svg version="1.0" xmlns="http://www.w3.org/2000/svg"
 width="300.000000pt" height="300.000000pt" viewBox="0 0 300.000000 300.000000"
 preserveAspectRatio="xMidYMid meet">
<metadata>
Created by potrace 1.11, written by Peter Selinger 2001-2013
</metadata>
<g transform="translate(0.000000,300.000000) scale(0.100000,-0.100000)"
fill="#000000" stroke="none">
<path d="M1518 2776 c-1 -2 -52 -6 -113 -9 -291 -15 -580 -146 -796 -359 -78
-78 -189 -216 -189 -237 0 -5 -4 -11 -8 -13 -12 -5 -86 -155 -110 -223 -53
-155 -74 -283 -73 -453 0 -102 3 -130 27 -252 88 -440 443 -823 883 -952 144
-42 388 -61 531 -43 67 9 240 56 308 84 167 69 277 142 422 281 192 184 332
471 366 750 5 47 6 299 1 308 -3 4 -8 27 -11 52 -8 57 -47 199 -74 267 -139
346 -440 624 -797 737 -44 14 -93 27 -110 30 -16 3 -41 7 -55 11 -14 3 -59 8
-100 11 -41 3 -80 7 -87 9 -6 2 -13 2 -15 1z"/>
</g>
</svg>
