<?xml version="1.0" encoding="UTF-8"?>
<svg width="64px" height="64px" viewBox="0 0 64 64" version="1.1" xmlns="http://www.w3.org/2000/svg" xmlns:xlink="http://www.w3.org/1999/xlink">
    <!-- Generator: Sketch 42 (36781) - http://www.bohemiancoding.com/sketch -->
    <title>Artboard</title>
    <desc>Created with Sketch.</desc>
    <defs></defs>
    <g id="Page-1" stroke="none" stroke-width="1" fill="none" fill-rule="evenodd">
        <g id="Artboard" fill="#FFFFFF">
            <path d="M12,17.9992205 C12,14.6859425 14.6866239,12 17.9992205,12 L46.0007795,12 C49.3140575,12 52,14.6861625 52,18.0027739 L52,56 L45.2730633,53.8361011 C42.1206729,52.8220504 39.7019984,52 39.7019984,52 L17.9938604,52 C14.6835427,52 12,49.3133761 12,46.0007795 L12,17.9992205 Z M18.1283862,41.1691077 C18.843527,41.7439695 20.1248541,42.5612003 21.9111143,43.367412 C24.9076678,44.7198782 28.2844668,45.5227349 31.9678001,45.4999714 C35.6056461,45.477489 38.9257496,44.682214 41.8636087,43.3697773 C43.6684346,42.5635033 44.958125,41.7456837 45.6756593,41.1699249 C46.321791,40.6514605 46.4252858,39.7073689 45.9068214,39.0612372 C45.388357,38.4151055 44.4442653,38.3116107 43.7981336,38.8300751 C43.6843366,38.9213873 43.4255924,39.1078039 43.0305745,39.358293 C42.3506333,39.7894578 41.550835,40.2237573 40.6399625,40.6306735 C38.0633287,41.7817392 35.1471305,42.4802654 31.94926,42.5000286 C28.7253729,42.5199527 25.7682137,41.8168683 23.1452559,40.633021 C22.243777,40.2261469 21.4501593,39.7917597 20.7738338,39.3603991 C20.380571,39.1095759 20.1221842,38.9227212 20.0079469,38.8308923 C19.3622666,38.3118659 18.4180852,38.4145393 17.8990589,39.0602196 C17.3800325,39.7059 17.4827058,40.6500814 18.1283862,41.1691077 Z" id="Combined-Shape"></path>
        </g>
    </g>
</svg>